<svg xmlns="http://www.w3.org/2000/svg" viewBox="0 0 512 512" style="enable-background:new 0 0 512 512" xml:space="preserve"><path style="fill:#ffbf9e" d="M56.376 253.743h98.916v153.918H56.376z"/><path style="fill:#ffc843" d="M206.541 188.549h98.916v219.112h-98.916z"/><path style="fill:#0055b8" d="M356.705 108.555h98.916v299.116h-98.916z"/><path style="opacity:.1;enable-background:new" d="M56.376 376.752h98.916v30.915H56.376zM206.541 376.752h98.916v30.915h-98.916zM356.705 376.752h98.916v30.915h-98.916z"/><path style="fill:#e0e0d3" d="M503.886 446.864c0 9.605-7.858 17.462-17.463 17.462H25.575c-9.604 0-17.461-7.858-17.461-17.462v-21.738c0-9.605 7.858-17.462 17.461-17.462h460.848c9.605 0 17.463 7.859 17.463 17.462v21.738z"/><path style="fill:#1e252b" d="M486.423 399.549h-22.687V108.552a8.114 8.114 0 0 0-8.114-8.114h-98.918a8.114 8.114 0 0 0-8.114 8.114v290.997h-35.017V188.551a8.114 8.114 0 0 0-8.114-8.114h-98.918a8.114 8.114 0 0 0-8.114 8.114v210.998H163.41V253.744a8.114 8.114 0 0 0-8.114-8.114H56.378a8.114 8.114 0 0 0-8.114 8.114v145.805H25.575C11.473 399.549 0 411.022 0 425.126v21.738c0 14.103 11.473 25.577 25.575 25.577h460.848c14.103 0 25.577-11.473 25.577-25.577v-21.738c0-14.104-11.473-25.577-25.577-25.577zM364.819 116.666h82.691v282.883h-82.691V116.666zm-150.163 79.999h82.69v202.884h-82.69V196.665zM64.492 261.858h82.691v137.691H64.492V261.858zm431.28 185.006c0 5.155-4.193 9.348-9.348 9.348H25.575c-5.154 0-9.347-4.193-9.347-9.348v-21.738c0-5.155 4.193-9.348 9.347-9.348h460.848c5.155 0 9.348 4.194 9.348 9.348v21.738zm-444.66-226.51a8.086 8.086 0 0 0 5.737-2.377l104.303-104.303 40.052 40.052a8.112 8.112 0 0 0 11.474 0l86.464-86.463v23.795a8.114 8.114 0 0 0 16.228 0V47.674a8.114 8.114 0 0 0-8.114-8.114h-43.383a8.114 8.114 0 0 0 0 16.228h23.794l-80.726 80.726-40.051-40.052a8.114 8.114 0 0 0-11.475 0L45.375 206.503a8.112 8.112 0 0 0 0 11.474 8.086 8.086 0 0 0 5.737 2.377z"/></svg>