<svg xmlns="http://www.w3.org/2000/svg" viewBox="0 0 194.2 249.7" style="enable-background:new 0 0 194.2 249.7" xml:space="preserve"><style>.st4,.st7{fill:#fff;stroke:#0561fc;stroke-width:10.0091}.st7{fill:none}</style><g id="Layer_4"><path d="M5.1 249.7v-9c0-28.4 22.9-51.3 51.2-51.3H130c28.3 0 51.2 23 51.2 51.3v9" style="fill:#c5e1f9;stroke:#0561fc;stroke-width:10.0091"/><path class="st4" d="M93.2 225.6c-12.7 0-22.9-10.3-22.9-23V79.7c0-12.7 10.3-23 22.9-23 12.7 0 22.9 10.3 22.9 23v122.9c0 12.7-10.3 23-22.9 23z"/><path d="M189.2 85.3c0-15.4-10.1-28.5-24.1-33.5.5-1.7.8-3.5.8-5.3 0-11.2-9.3-20.2-20.7-20.2h-.5C131.6 13.2 113.5 5 93.5 5 58.3 5 28.9 30.4 22.6 63.9 12 70.2 5 81.4 5 94.3c0 11.4 5.5 21.5 14.1 28-1.5 3.3-2.4 6.9-2.4 10.7 0 16.2 15.5 29.3 34.6 29.3s34.6-13.1 34.6-29.3c0-1.5-.2-2.9-.4-4.3h50.8c1 10.8 10 19.2 21 19.2 11.7 0 21.1-9.5 21.1-21.2 0-4.8-1.6-9.2-4.3-12.7 9.2-6.4 15.1-16.8 15.1-28.7z" style="fill:#9ac7f7;stroke:#0561fc;stroke-width:10.0091"/><path d="M157.6 82.9v35.3c0 31.4-28.7 56.8-64.1 56.8-35.4 0-64.1-25.4-64.1-56.8V79.9l28-15.4 10.8-17.9 5.7-11.1 6.7 11.1 27.6 23.9 27.6 7.8 21.7 2" style="fill:#fff"/><path class="st4" d="M153.1 83.4c2.1-.8 4.4-1.2 6.7-1.2 10.8 0 19.5 8.8 19.5 19.6s-8.8 19.6-19.5 19.6M33.1 121.4c-10.8 0-19.5-8.8-19.5-19.6s8.7-19.6 19.5-19.6"/><path class="st7" d="M157.6 81v29.8c0 35.5-28.7 64.3-64.1 64.3-35.4 0-64.1-28.8-64.1-64.3V81"/><path class="st7" d="M76.7 146.5c12.9 5.2 26.8 4 38.2-2.1"/><path d="M158.1 82.5c-27.6 1.6-61.2-7.4-74.3-35.9l-9-19.6c-2.9 21-15.5 40.6-35.6 51.1-4.2 2.2-7.4 3.7-12.3 5.4" style="fill:none;stroke:#0561fc;stroke-width:10.0091;stroke-linejoin:bevel"/><path class="st7" d="M74.6 98.5H62.9M121.4 98.5h-11.7M102 124.2H89.5V91.8"/></g></svg>