<svg version="1.1" id="ecommerce_1_" xmlns="http://www.w3.org/2000/svg" x="0" y="0" viewBox="0 0 115 115" style="enable-background:new 0 0 115 115" xml:space="preserve"><style>.st0{fill:#ffeead}.st1{fill:#c9b77d}.st2{fill:#99734a}</style><g id="pay_with_CC_1_"><path d="M94.391 2.952H6.567A6.567 6.567 0 0 0 0 9.519v50.769a6.567 6.567 0 0 0 6.567 6.567h87.824a6.567 6.567 0 0 0 6.567-6.567V9.519a6.567 6.567 0 0 0-6.567-6.567z" style="fill:#96ceb4"/><path class="st2" d="M0 12.555h100.958v13.881H0z"/><circle cx="80.457" cy="35.557" r="5.701" style="fill:#e05858"/><circle class="st0" cx="87.856" cy="35.557" r="5.701"/><circle cx="87.856" cy="50.452" r="5.701" style="fill:#fff"/><circle cx="80.457" cy="50.452" r="5.701" style="fill:#ffcc5c"/><path class="st0" d="M5.915 32.423h56.424v10.27H5.915z"/><path class="st2" d="M60.832 46.953H6.497c-.829 0-1.507.678-1.507 1.507 0 .829.678 1.507 1.507 1.507h54.335c.829 0 1.507-.678 1.507-1.507 0-.829-.678-1.507-1.507-1.507zM60.832 54.667H6.497c-.829 0-1.507.678-1.507 1.507 0 .829.678 1.507 1.507 1.507h54.335c.829 0 1.507-.678 1.507-1.507 0-.829-.678-1.507-1.507-1.507z"/><g><path d="M92.811 63.516h-.251c-1.972 0-3.734.879-4.965 2.246-1.111-2.28-3.432-3.873-6.127-3.873-2.033 0-3.846.918-5.1 2.339l-1.447-23.722c0-3.551-1.458-6.456-5.009-6.456-2.944 0-4.432 2.008-4.861 4.714-.013.075-.029.147-.039.223-.066.488-.108.991-.109 1.514v.005l-1.387 26.348H94.39a6.504 6.504 0 0 0 3.447-1c-1.224-1.42-3.011-2.338-5.026-2.338z" style="fill:#71a58a"/></g><g><path class="st0" d="M108.566 62.765h-.798c-1.403 0-2.74.554-3.8 1.324 0 0-.112-.474-.354-.833-1.146-2.479-3.461-3.933-6.376-3.933h-.251c-1.972 0-3.734.879-4.965 2.245-1.111-2.28-3.432-3.873-6.127-3.873-2.033 0-3.846.918-5.1 2.339l-1.447-23.722c0-3.551-1.458-6.456-5.009-6.456s-5.009 2.905-5.009 6.456l-1.447 27.497v4.18l-3.639 2.483c-1.486 1.014-3.009 2.063-3.975 3.498-2.425 3.6-.64 8.213 1.185 12.089l6.723 14.281c.447.948.917 1.928 1.759 2.625.033.027.074.04.108.066 2.965 5.362 8.679 9.017 15.209 9.017h10.934c8.463 0 15.55-6.138 17.06-14.18.182-.593.308-1.209.308-1.86V94.68L115 80.133V69.2c0-3.539-2.896-6.435-6.434-6.435z"/><path class="st1" d="M67.071 75.051c-.098.708-.22 1.855-.903 2.465-.683.61-1.05 1.562-.976 2.392.073.83 1.245 1.953 1.66 1.879.415-.073.537-.415.537-.415l.494-13.384c-.001.001-.715 6.355-.812 7.063zM84.652 57.82a6.868 6.868 0 0 0-3.857 2.213l.36 4.847c0 .001.296-4.628 3.497-7.06zM97.809 59.358c-.19-.013-.376-.036-.571-.036h-.251c-1.972 0-3.734.879-4.965 2.245l.392 1.993c0 .001 1.071-2.917 5.395-4.202zM108.742 62.783c-.06-.002-.116-.018-.176-.018h-.798c-1.403 0-2.74.554-3.8 1.324l.417 1.583c-.001 0 .712-2.321 4.357-2.889z"/></g></g></svg>