<svg xmlns="http://www.w3.org/2000/svg" viewBox="0 0 48 48"><defs><style>.cls-1{fill:#f6ccaf}.cls-2{fill:#edb996}</style></defs><g id="delivery_product" data-name="delivery product"><path class="cls-1" d="M47 28.74c0 1.68.24 1-12.68 13.92A8 8 0 0 1 28.67 45H11V33.48C15.57 30.34 19 31 30.35 31a3 3 0 0 1 2.9 3.76l8.53-8A3 3 0 0 1 47 28.74z"/><path class="cls-1" d="M21.6 37h8.75a3 3 0 0 0 2.9-2.24"/><path class="cls-2" d="M34.32 39.66A8 8 0 0 1 28.67 42H11v3h17.67a8 8 0 0 0 5.65-2.34c13-13 12.68-12.25 12.68-13.92a3 3 0 0 0-.42-1.5c-.31.53.68-.52-12.26 12.42z"/><path class="cls-2" d="M30.35 37H21.6a1 1 0 0 1 0-2h8.75a2 2 0 1 0 0-4 3 3 0 0 1 2.19 1 3 3 0 0 1-2.19 5z"/><path style="fill:#f16f39" d="M1 30h10v17H1z"/><path d="M11 30c0 15.75-.1 15 0 15a7 7 0 0 1-7-7v-8z" style="fill:#f8834b"/><path class="cls-2" d="M12 1h24v24H12z"/><path class="cls-1" d="M36 1c0 23.28-.1 22 0 22-10.73 0-21-8.2-21-22z"/><path style="fill:#a87e6b" d="M20 1h8v6h-8z"/><path d="M28 1v4h-2a4 4 0 0 1-4-4z" style="fill:#be927c"/><path style="fill:#dad7e5" d="M16 17h6v4h-6z"/><path d="M22 17v3h-2a3 3 0 0 1-3-3z" style="fill:#edebf2"/><path d="M46.2 25.39a4.1 4.1 0 0 0-5.13.62l-6.89 6.89a4 4 0 0 0-3.83-2.9c-11.74 0-14-.49-18.35 1.73V30a1 1 0 0 0-1-1H1a1 1 0 0 0-1 1v17a1 1 0 0 0 1 1h10a1 1 0 0 0 1-1v-1h16.67A9 9 0 0 0 35 43.37l11.8-11.81a4 4 0 0 0-.6-6.17zM10 46H2V31h8zm35.42-15.85L33.61 42a6.94 6.94 0 0 1-4.94 2H12V34a13.22 13.22 0 0 1 7.1-2c11.8 0 11.82-.25 12.67.59A2 2 0 0 1 30.35 36H21.6a1 1 0 0 0 0 2h8.75a4 4 0 0 0 3.45-2c.29-.11-.44.56 8.68-8.56a2 2 0 1 1 2.94 2.71z"/><path d="M12 26h24a1 1 0 0 0 1-1V1a1 1 0 0 0-1-1H12a1 1 0 0 0-1 1v24a1 1 0 0 0 1 1zM27 2v4h-6V2zM13 2h6v5a1 1 0 0 0 1 1h8a1 1 0 0 0 1-1V2h6v22H13z"/><path d="M22 16h-6a1 1 0 0 0-1 1v4a1 1 0 0 0 1 1h6a1 1 0 0 0 1-1v-4a1 1 0 0 0-1-1zm-1 4h-4v-2h4z"/></g></svg>