<svg xmlns="http://www.w3.org/2000/svg" xml:space="preserve" width="26" style="shape-rendering:geometricPrecision;text-rendering:geometricPrecision;image-rendering:optimizeQuality;fill-rule:evenodd;clip-rule:evenodd" viewBox="0 0 6.827 6.827"><defs><style>.fil0{fill:none}.fil5{fill:#29b6f6}.fil2{fill:#b6b6b6}.fil6{fill:#939393;fill-rule:nonzero}</style></defs><g id="Layer_x0020_1"><g id="_248899576"><path id="_248899744" class="fil0" d="M0 0h6.827v6.827H0z"/><path id="_248899432" class="fil0" d="M.853.853h5.12v5.12H.853z"/></g><g id="_248895496"><path id="_248899072" style="fill:#e0e0e0" d="m1.364 2.453 2.05-1.417L5.461 2.33v3.642H1.364z"/><path id="_248899720" class="fil2" d="M5.462 2.413v.234L3.413 1.232 1.364 2.647v-.252L3.414.98z"/><path id="_248898640" class="fil2" d="M5.462 4.633v.233L3.413 3.451 1.364 4.866v-.251l2.05-1.416z"/><path id="_248898472" class="fil2" d="M3.037 4.272h.856v.96h-.96v-.96z"/><path id="_248898280" style="fill:#d32f2f;fill-rule:nonzero" d="M.925 2.62 3.32.92l.092-.066.092.066L5.902 2.62l-.184.152-2.305-1.637L1.11 2.773z"/><path id="_248898424" style="fill:#e53935;fill-rule:nonzero" d="m1.138 4.684 2.275-1.572L5.69 4.684l-.168.135-2.108-1.455-2.107 1.455z"/><path id="_248899024" class="fil5" d="M2.244 2.24v.427h-.267V2.24z"/><path id="_248898928" class="fil6" d="M1.943 2.657h.335v.036h-.335z"/><path id="_248898160" class="fil5" d="M2.895 2.24v.427H2.63V2.24z"/><path id="_248898064" class="fil6" d="M2.594 2.657h.336v.036h-.336z"/><path id="_248897824" class="fil5" d="M3.547 2.24v.427H3.28V2.24z"/><path id="_248897632" class="fil6" d="M3.246 2.657h.335v.036h-.335z"/><g><path id="_248897944" class="fil5" d="M4.198 2.24v.427h-.267V2.24z"/><path id="_248897296" class="fil6" d="M3.897 2.657h.335v.036h-.335z"/></g><g><path id="_248897488" class="fil5" d="M4.85 2.24v.427h-.267V2.24z"/><path id="_248896792" class="fil6" d="M4.548 2.657h.336v.036h-.336z"/></g><g><path id="_248897080" class="fil5" d="M2.244 2.957v.426h-.267v-.426z"/><path id="_248896984" class="fil6" d="M1.943 3.374h.335v.036h-.335z"/><path id="_248896504" class="fil5" d="M2.895 2.957v.426H2.63v-.426z"/><path id="_248896384" class="fil6" d="M2.594 3.374h.336v.036h-.336z"/><g><path id="_248896360" class="fil5" d="M4.198 2.957v.426h-.267v-.426z"/><path id="_248896264" class="fil6" d="M3.897 3.374h.335v.036h-.335z"/></g><g><path id="_248896192" class="fil5" d="M4.85 2.957v.426h-.267v-.426z"/><path id="_248896288" class="fil6" d="M4.548 3.374h.336v.036h-.336z"/></g></g><path id="_248895400" style="fill:#b3e5fc" d="M3.071 4.316h.778v.871h-.871v-.871z"/><path id="_248895520" style="fill:#93dafa" d="M3.849 4.316v.871h-.871z"/></g></g></svg>